<svg width="121" height="20" viewBox="0 0 121 20" fill="none" xmlns="http://www.w3.org/2000/svg">
<path d="M0 11.2165C0 9.5296 0.354326 8.0292 1.06298 6.71533C1.78811 5.38524 2.80989 4.35523 4.12831 3.62531C5.44674 2.87916 6.96293 2.50608 8.67688 2.50608C10.8523 2.50608 12.6816 3.08191 14.1648 4.23358C15.648 5.36902 16.6039 6.91809 17.0324 8.88078H11.8164C11.5032 8.24818 11.0665 7.76156 10.5062 7.42092C9.96234 7.08029 9.32785 6.90998 8.60271 6.90998C7.48205 6.90998 6.58388 7.29927 5.90819 8.07786C5.24897 8.85645 4.91937 9.90268 4.91937 11.2165C4.91937 12.5304 5.24897 13.5848 5.90819 14.3796C6.58388 15.1581 7.48205 15.5474 8.60271 15.5474C9.32785 15.5474 9.96234 15.3771 10.5062 15.0365C11.0665 14.6959 11.5032 14.2092 11.8164 13.5766H17.0324C16.6039 15.5393 15.648 17.0965 14.1648 18.2482C12.6816 19.3836 10.8523 19.9513 8.67688 19.9513C6.96293 19.9513 5.44674 19.5864 4.12831 18.8564C2.80989 18.1103 1.78811 17.0803 1.06298 15.7664C0.354326 14.4363 0 12.9197 0 11.2165Z" fill="white"/>
<path d="M25.7788 20C24.3944 20 23.1502 19.7161 22.046 19.1484C20.9583 18.5807 20.1013 17.7697 19.4751 16.7153C18.8488 15.661 18.5357 14.4201 18.5357 12.9927C18.5357 11.5815 18.8488 10.3487 19.4751 9.2944C20.1178 8.24007 20.983 7.42903 22.0707 6.86131C23.1749 6.29359 24.4192 6.00973 25.8035 6.00973C27.1879 6.00973 28.4239 6.29359 29.5116 6.86131C30.6158 7.42903 31.481 8.24007 32.1072 9.2944C32.75 10.3487 33.0713 11.5815 33.0713 12.9927C33.0713 14.4039 32.75 15.6448 32.1072 16.7153C31.481 17.7697 30.6158 18.5807 29.5116 19.1484C28.4074 19.7161 27.1631 20 25.7788 20ZM25.7788 15.8881C26.438 15.8881 26.9983 15.6448 27.4598 15.1582C27.9212 14.6553 28.152 13.9335 28.152 12.9927C28.152 12.0681 27.9212 11.3625 27.4598 10.8759C27.0148 10.3731 26.4627 10.1217 25.8035 10.1217C25.1443 10.1217 24.5922 10.3731 24.1472 10.8759C23.7023 11.3625 23.4798 12.0681 23.4798 12.9927C23.4798 13.9335 23.694 14.6553 24.1225 15.1582C24.551 15.6448 25.1031 15.8881 25.7788 15.8881Z" fill="white"/>
<path d="M39.8878 1.82482V19.8297H35.0426V1.82482H39.8878Z" fill="white"/>
<path d="M55.8972 12.8224C55.8972 13.1955 55.8725 13.5685 55.823 13.9416H46.627C46.6929 14.704 46.9072 15.2717 47.2697 15.6448C47.6488 16.0016 48.1267 16.18 48.7035 16.18C49.5111 16.18 50.0879 15.8232 50.434 15.1095H55.6005C55.3863 16.0503 54.966 16.8938 54.3398 17.6399C53.73 18.3698 52.9554 18.9457 52.0161 19.3674C51.0767 19.7891 50.0384 20 48.9013 20C47.5334 20 46.3139 19.7161 45.2427 19.1484C44.1879 18.5807 43.3557 17.7697 42.7459 16.7153C42.1526 15.661 41.856 14.4201 41.856 12.9927C41.856 11.5653 42.1526 10.3325 42.7459 9.2944C43.3392 8.24007 44.1632 7.42903 45.2179 6.86131C46.2892 6.29359 47.5169 6.00973 48.9013 6.00973C50.2692 6.00973 51.4805 6.28548 52.5352 6.83698C53.5899 7.38848 54.4139 8.18329 55.0072 9.22141C55.6005 10.2433 55.8972 11.4436 55.8972 12.8224ZM50.9531 11.8005C50.9531 11.1517 50.7553 10.6569 50.3598 10.3163C49.9643 9.95945 49.4699 9.78102 48.8766 9.78102C48.2668 9.78102 47.7641 9.95134 47.3686 10.292C46.9896 10.6326 46.7506 11.1354 46.6517 11.8005H50.9531Z" fill="white"/>
<path d="M57.089 12.9927C57.089 11.5815 57.3856 10.3487 57.9789 9.2944C58.5722 8.24007 59.3962 7.42903 60.4509 6.86131C61.5222 6.29359 62.7417 6.00973 64.1096 6.00973C65.873 6.00973 67.3562 6.48824 68.5593 7.44526C69.7623 8.38605 70.5369 9.70803 70.883 11.4112H65.7411C65.4445 10.5191 64.8677 10.073 64.0107 10.073C63.4009 10.073 62.9148 10.3244 62.5522 10.8273C62.2061 11.3139 62.0331 12.0357 62.0331 12.9927C62.0331 13.9497 62.2061 14.6796 62.5522 15.1825C62.9148 15.6853 63.4009 15.9367 64.0107 15.9367C64.8842 15.9367 65.461 15.4907 65.7411 14.5985H70.883C70.5369 16.2855 69.7623 17.6075 68.5593 18.5645C67.3562 19.5215 65.873 20 64.1096 20C62.7417 20 61.5222 19.7161 60.4509 19.1484C59.3962 18.5807 58.5722 17.7697 57.9789 16.7153C57.3856 15.661 57.089 14.4201 57.089 12.9927Z" fill="white"/>
<path d="M81.0782 15.7664V19.8297H78.977C75.4337 19.8297 73.6621 18.1022 73.6621 14.6472V10.146H71.9564V6.18005H73.6621V2.87105H78.532V6.18005H81.0535V10.146H78.532V14.7202C78.532 15.0933 78.6144 15.3609 78.7792 15.5231C78.9605 15.6853 79.2572 15.7664 79.6692 15.7664H81.0782Z" fill="white"/>
<path d="M85.7479 4.91484C84.8909 4.91484 84.1987 4.68775 83.6714 4.23358C83.1605 3.76318 82.905 3.17924 82.905 2.48175C82.905 1.76805 83.1605 1.17599 83.6714 0.705597C84.1987 0.235199 84.8909 0 85.7479 0C86.5884 0 87.2641 0.235199 87.775 0.705597C88.3023 1.17599 88.566 1.76805 88.566 2.48175C88.566 3.17924 88.3023 3.76318 87.775 4.23358C87.2641 4.68775 86.5884 4.91484 85.7479 4.91484ZM88.1458 6.18005V19.8297H83.3006V6.18005H88.1458Z" fill="white"/>
<path d="M97.5548 15.3285L100.15 6.18005H105.342L100.546 19.8297H94.5142L89.7431 6.18005H94.9097L97.5548 15.3285Z" fill="white"/>
<path d="M106.168 12.9927C106.168 11.5815 106.423 10.3487 106.934 9.2944C107.461 8.24007 108.17 7.42903 109.06 6.86131C109.966 6.29359 110.972 6.00973 112.076 6.00973C113.032 6.00973 113.856 6.19627 114.548 6.56934C115.24 6.94242 115.776 7.44526 116.155 8.07786V6.18005H121V19.8297H116.155V17.9319C115.776 18.5645 115.232 19.0673 114.523 19.4404C113.831 19.8135 113.015 20 112.076 20C110.972 20 109.966 19.7161 109.06 19.1484C108.17 18.5807 107.461 17.7697 106.934 16.7153C106.423 15.6448 106.168 14.4039 106.168 12.9927ZM116.155 12.9927C116.155 12.1168 115.908 11.4274 115.413 10.9246C114.935 10.4217 114.342 10.1703 113.633 10.1703C112.908 10.1703 112.307 10.4217 111.829 10.9246C111.351 11.4112 111.112 12.1006 111.112 12.9927C111.112 13.8686 111.351 14.5661 111.829 15.0852C112.307 15.588 112.908 15.8394 113.633 15.8394C114.342 15.8394 114.935 15.588 115.413 15.0852C115.908 14.5823 116.155 13.8848 116.155 12.9927Z" fill="white"/>
</svg>
